<svg width="115" height="31" viewBox="0 0 115 31" fill="none" xmlns="http://www.w3.org/2000/svg">
<path d="M15.7929 4.09528V4.09632C15.776 4.1254 12.2955 10.1293 7.95067 17.4596C3.59532 24.8077 0 30.6906 0 30.6906L12.3315 30.6366L12.3323 30.6364L12.3297 30.646C18.3172 30.53 23.7182 26.5935 25.3119 20.6454C25.8102 18.786 25.8853 16.9143 25.5964 15.1255C24.8043 9.8583 20.9149 5.57454 15.7929 4.09528Z" fill="black"/>
<path d="M22.6076 0.309326V0.31037C22.5907 0.339449 19.1102 6.3433 14.7654 13.6736C10.41 21.0218 6.8147 26.9047 6.8147 26.9047L19.1461 26.8506L19.147 26.8505L19.1444 26.86C25.1319 26.7441 30.5329 22.8075 32.1266 16.8594C32.6249 15.0001 32.7 13.1284 32.4111 11.3396C31.619 6.07236 27.7296 1.78859 22.6076 0.309326Z" fill="#10F2C5"/>
<path d="M41.491 9.4475V6.26965H56.4634V9.4475H50.8821V24.5H47.0722V9.4475H41.491ZM74.8495 15.3848C74.8495 17.3728 74.4727 19.0641 73.719 20.4587C72.9713 21.8533 71.9506 22.9185 70.6569 23.6544C69.3691 24.3843 67.9211 24.7492 66.3129 24.7492C64.6928 24.7492 63.2389 24.3813 61.9512 23.6455C60.6634 22.9096 59.6457 21.8444 58.8979 20.4498C58.1502 19.0552 57.7764 17.3669 57.7764 15.3848C57.7764 13.3968 58.1502 11.7055 58.8979 10.3109C59.6457 8.91637 60.6634 7.85412 61.9512 7.12419C63.2389 6.38833 64.6928 6.0204 66.3129 6.0204C67.9211 6.0204 69.3691 6.38833 70.6569 7.12419C71.9506 7.85412 72.9713 8.91637 73.719 10.3109C74.4727 11.7055 74.8495 13.3968 74.8495 15.3848ZM70.9417 15.3848C70.9417 14.0971 70.7489 13.0111 70.3631 12.1269C69.9833 11.2426 69.4463 10.5721 68.752 10.1151C68.0576 9.65817 67.2446 9.42969 66.3129 9.42969C65.3812 9.42969 64.5682 9.65817 63.8739 10.1151C63.1796 10.5721 62.6396 11.2426 62.2538 12.1269C61.874 13.0111 61.6841 14.0971 61.6841 15.3848C61.6841 16.6726 61.874 17.7586 62.2538 18.6428C62.6396 19.527 63.1796 20.1976 63.8739 20.6545C64.5682 21.1115 65.3812 21.34 66.3129 21.34C67.2446 21.34 68.0576 21.1115 68.752 20.6545C69.4463 20.1976 69.9833 19.527 70.3631 18.6428C70.7489 17.7586 70.9417 16.6726 70.9417 15.3848ZM84.1672 24.5H77.7047V6.26965H84.2206C86.0543 6.26965 87.6329 6.63461 88.9562 7.36454C90.2796 8.08853 91.2973 9.13001 92.0095 10.489C92.7275 11.8479 93.0865 13.474 93.0865 15.367C93.0865 17.266 92.7275 18.898 92.0095 20.2629C91.2973 21.6278 90.2737 22.6752 88.9384 23.4051C87.6091 24.135 86.0187 24.5 84.1672 24.5ZM81.559 21.1975H84.007C85.1464 21.1975 86.1048 20.9958 86.8822 20.5922C87.6655 20.1828 88.253 19.5507 88.6447 18.6962C89.0423 17.8357 89.2411 16.726 89.2411 15.367C89.2411 14.0199 89.0423 12.9191 88.6447 12.0645C88.253 11.21 87.6685 10.581 86.8911 10.1774C86.1137 9.77389 85.1553 9.57212 84.0159 9.57212H81.559V21.1975ZM112.694 15.3848C112.694 17.3728 112.318 19.0641 111.564 20.4587C110.816 21.8533 109.795 22.9185 108.502 23.6544C107.214 24.3843 105.766 24.7492 104.158 24.7492C102.538 24.7492 101.084 24.3813 99.7961 23.6455C98.5083 22.9096 97.4906 21.8444 96.7428 20.4498C95.9951 19.0552 95.6212 17.3669 95.6212 15.3848C95.6212 13.3968 95.9951 11.7055 96.7428 10.3109C97.4906 8.91637 98.5083 7.85412 99.7961 7.12419C101.084 6.38833 102.538 6.0204 104.158 6.0204C105.766 6.0204 107.214 6.38833 108.502 7.12419C109.795 7.85412 110.816 8.91637 111.564 10.3109C112.318 11.7055 112.694 13.3968 112.694 15.3848ZM108.787 15.3848C108.787 14.0971 108.594 13.0111 108.208 12.1269C107.828 11.2426 107.291 10.5721 106.597 10.1151C105.903 9.65817 105.09 9.42969 104.158 9.42969C103.226 9.42969 102.413 9.65817 101.719 10.1151C101.024 10.5721 100.484 11.2426 100.099 12.1269C99.7189 13.0111 99.529 14.0971 99.529 15.3848C99.529 16.6726 99.7189 17.7586 100.099 18.6428C100.484 19.527 101.024 20.1976 101.719 20.6545C102.413 21.1115 103.226 21.34 104.158 21.34C105.09 21.34 105.903 21.1115 106.597 20.6545C107.291 20.1976 107.828 19.527 108.208 18.6428C108.594 17.7586 108.787 16.6726 108.787 15.3848Z" fill="black"/>
</svg>
