   <svg
            width="56"
            height="48"
            viewBox="0 0 56 48"
            fill="none"
            xmlns="http://www.w3.org/2000/svg"
          >
            <rect width="56" height="48" rx="8" fill="white" />
            <path
              d="M26 14.75C30.0041 14.75 33.25 17.9959 33.25 22C33.25 23.7319 32.6427 25.3219 31.6295 26.5688L36.5303 31.4697C36.8232 31.7626 36.8232 32.2374 36.5303 32.5303C36.2641 32.7966 35.8474 32.8208 35.5538 32.6029L35.4697 32.5303L30.5688 27.6295C29.3219 28.6427 27.7319 29.25 26 29.25C21.9959 29.25 18.75 26.0041 18.75 22C18.75 17.9959 21.9959 14.75 26 14.75ZM26 16.25C22.8244 16.25 20.25 18.8244 20.25 22C20.25 25.1756 22.8244 27.75 26 27.75C29.1756 27.75 31.75 25.1756 31.75 22C31.75 18.8244 29.1756 16.25 26 16.25Z"
              fill="#212121"
            />
          </svg>